<?xml version="1.0" standalone="no"?>
<!DOCTYPE svg PUBLIC "-//W3C//DTD SVG 20010904//EN"
 "http://www.w3.org/TR/2001/REC-SVG-20010904/DTD/svg10.dtd">
<svg version="1.0" xmlns="http://www.w3.org/2000/svg"
 width="84.000000pt" height="84.000000pt" viewBox="0 0 84.000000 84.000000"
 preserveAspectRatio="xMidYMid meet">

<g transform="translate(0.000000,84.000000) scale(0.100000,-0.100000)"
fill="#000000" stroke="none">
<path d="M190 748 c-11 -18 -20 -35 -20 -38 0 -3 9 -20 20 -37 17 -29 25 -33
63 -33 40 0 46 3 63 35 18 34 18 36 0 70 -17 32 -23 35 -63 35 -38 0 -46 -4
-63 -32z m120 -10 c13 -25 13 -31 0 -55 -13 -23 -24 -29 -57 -31 -38 -3 -43 0
-58 27 -14 28 -14 34 0 62 15 27 20 30 58 27 33 -2 44 -8 57 -30z"/>
<path d="M583 773 c40 -4 49 -8 62 -34 14 -26 14 -32 0 -59 -13 -26 -21 -30
-55 -30 -32 0 -43 5 -57 26 -14 22 -15 31 -5 58 10 28 10 29 -3 12 -19 -26
-19 -41 2 -77 16 -27 22 -30 62 -27 39 3 48 8 64 36 18 31 18 33 0 65 -17 29
-24 32 -68 33 l-50 1 48 -4z"/>
<path d="M343 548 l-73 -42 0 -86 0 -85 50 -28 c62 -35 66 -28 5 8 l-46 26 3
82 3 81 67 39 68 39 55 -32 c30 -17 55 -29 55 -26 0 4 -104 66 -111 66 -2 0
-37 -19 -76 -42z"/>
<path d="M391 515 c-1 -11 -5 -16 -9 -10 -4 6 -18 -1 -34 -17 -15 -16 -21 -28
-15 -29 7 -1 1 -5 -13 -9 -24 -8 -24 -8 -2 -9 15 -1 22 -7 22 -20 0 -12 -8
-21 -22 -24 -22 -4 -22 -4 2 -6 14 -1 21 -5 15 -9 -6 -4 1 -18 18 -34 16 -16
27 -21 27 -13 0 7 -7 16 -15 19 -13 4 -15 19 -13 68 l3 63 65 0 65 0 3 -63 c2
-49 0 -64 -13 -68 -8 -3 -15 -12 -15 -19 0 -8 11 -3 28 13 15 15 23 30 18 33
-5 4 0 9 10 12 16 4 17 5 2 6 -11 1 -18 9 -18 20 0 11 8 22 18 24 14 4 14 5
-3 6 -11 1 -16 5 -10 9 6 4 -1 18 -17 34 -16 15 -28 21 -29 15 0 -7 -4 -3 -9
8 -7 17 -9 17 -9 3 -1 -11 -9 -18 -20 -18 -11 0 -22 8 -24 18 -4 14 -5 14 -6
-3z"/>
<path d="M548 509 c7 -8 12 -42 12 -91 l0 -77 -70 -41 c-58 -34 -73 -39 -90
-30 -11 6 -20 8 -20 6 0 -3 9 -10 20 -16 16 -9 33 -3 95 32 l75 43 0 86 c0 74
-3 88 -17 94 -15 5 -16 4 -5 -6z"/>
<path d="M21 455 l-20 -35 20 -35 c19 -31 25 -35 64 -35 39 0 45 4 64 35 l20
35 -20 35 c-19 31 -25 35 -64 35 -39 0 -45 -4 -64 -35z m121 -5 c16 -28 16
-32 0 -60 -14 -25 -23 -30 -57 -30 -34 0 -43 5 -57 30 -16 28 -16 32 0 60 14
25 23 30 57 30 34 0 43 -5 57 -30z"/>
<path d="M691 455 l-20 -35 20 -35 c19 -31 25 -35 64 -35 39 0 45 4 64 35 l20
35 -20 35 c-19 31 -25 35 -64 35 -39 0 -45 -4 -64 -35z m121 -5 c16 -28 16
-32 0 -60 -14 -25 -23 -30 -57 -30 -34 0 -43 5 -57 30 -16 28 -16 32 0 60 14
25 23 30 57 30 34 0 43 -5 57 -30z"/>
<path d="M392 330 c0 -14 2 -19 5 -12 2 6 2 18 0 25 -3 6 -5 1 -5 -13z"/>
<path d="M422 343 c9 -2 19 -12 21 -21 3 -12 5 -10 6 6 1 17 -4 22 -21 21 -16
-1 -18 -3 -6 -6z"/>
<path d="M190 168 c-11 -18 -20 -35 -20 -38 0 -3 9 -20 20 -37 17 -29 25 -33
63 -33 40 0 46 3 63 35 18 34 18 36 0 70 -17 32 -23 35 -63 35 -38 0 -46 -4
-63 -32z m120 -10 c13 -25 13 -31 0 -55 -13 -23 -24 -29 -57 -31 -38 -3 -43 0
-58 27 -14 28 -14 34 0 62 15 27 20 30 58 27 33 -2 44 -8 57 -30z"/>
<path d="M525 165 c-19 -34 -19 -36 0 -70 18 -34 21 -36 64 -33 39 3 48 7 64
36 18 31 18 33 0 65 -16 28 -25 32 -64 35 -43 3 -46 1 -64 -33z m120 -5 c14
-27 14 -33 0 -60 -13 -26 -21 -30 -55 -30 -29 0 -43 6 -54 22 -34 48 -6 98 54
98 34 0 42 -4 55 -30z"/>
</g>
</svg>
